<mxfile host="app.diagrams.net" agent="Mozilla/5.0 (X11; Linux x86_64; rv:132.0) Gecko/20100101 Firefox/132.0" version="24.8.6">
  <diagram name="Page-1" id="KPC0E1xgR0gSPTreljMa">
    <mxGraphModel dx="1034" dy="518" grid="1" gridSize="10" guides="1" tooltips="1" connect="1" arrows="1" fold="1" page="1" pageScale="1" pageWidth="850" pageHeight="1100" math="0" shadow="0">
      <root>
        <mxCell id="0" />
        <mxCell id="1" parent="0" />
        <mxCell id="zOs2S9CECTEiA2t7L2AP-10" value="" style="edgeStyle=orthogonalEdgeStyle;rounded=0;orthogonalLoop=1;jettySize=auto;html=1;" parent="1" source="zOs2S9CECTEiA2t7L2AP-4" target="zOs2S9CECTEiA2t7L2AP-8" edge="1">
          <mxGeometry relative="1" as="geometry" />
        </mxCell>
        <mxCell id="zOs2S9CECTEiA2t7L2AP-17" value="1" style="edgeLabel;html=1;align=center;verticalAlign=middle;resizable=0;points=[];" parent="zOs2S9CECTEiA2t7L2AP-10" vertex="1" connectable="0">
          <mxGeometry x="-0.25" relative="1" as="geometry">
            <mxPoint x="10" as="offset" />
          </mxGeometry>
        </mxCell>
        <mxCell id="zOs2S9CECTEiA2t7L2AP-4" value="Leihwagen" style="whiteSpace=wrap;html=1;aspect=fixed;" parent="1" vertex="1">
          <mxGeometry x="200" y="80" width="80" height="80" as="geometry" />
        </mxCell>
        <mxCell id="zOs2S9CECTEiA2t7L2AP-6" value="Vermieter" style="whiteSpace=wrap;html=1;aspect=fixed;" parent="1" vertex="1">
          <mxGeometry x="320" y="200" width="80" height="80" as="geometry" />
        </mxCell>
        <mxCell id="zOs2S9CECTEiA2t7L2AP-15" value="" style="edgeStyle=orthogonalEdgeStyle;rounded=0;orthogonalLoop=1;jettySize=auto;html=1;" parent="1" source="zOs2S9CECTEiA2t7L2AP-7" target="zOs2S9CECTEiA2t7L2AP-9" edge="1">
          <mxGeometry relative="1" as="geometry" />
        </mxCell>
        <mxCell id="zOs2S9CECTEiA2t7L2AP-20" value="1" style="edgeLabel;html=1;align=center;verticalAlign=middle;resizable=0;points=[];" parent="zOs2S9CECTEiA2t7L2AP-15" vertex="1" connectable="0">
          <mxGeometry x="-0.375" y="2" relative="1" as="geometry">
            <mxPoint x="-22" y="-2" as="offset" />
          </mxGeometry>
        </mxCell>
        <mxCell id="zOs2S9CECTEiA2t7L2AP-7" value="Mieter" style="whiteSpace=wrap;html=1;aspect=fixed;" parent="1" vertex="1">
          <mxGeometry x="440" y="80" width="80" height="80" as="geometry" />
        </mxCell>
        <mxCell id="zOs2S9CECTEiA2t7L2AP-11" value="" style="edgeStyle=orthogonalEdgeStyle;rounded=0;orthogonalLoop=1;jettySize=auto;html=1;" parent="1" source="zOs2S9CECTEiA2t7L2AP-8" target="zOs2S9CECTEiA2t7L2AP-6" edge="1">
          <mxGeometry relative="1" as="geometry" />
        </mxCell>
        <mxCell id="zOs2S9CECTEiA2t7L2AP-18" value="n" style="edgeLabel;html=1;align=center;verticalAlign=middle;resizable=0;points=[];" parent="zOs2S9CECTEiA2t7L2AP-11" vertex="1" connectable="0">
          <mxGeometry x="0.1" y="1" relative="1" as="geometry">
            <mxPoint y="-9" as="offset" />
          </mxGeometry>
        </mxCell>
        <mxCell id="zOs2S9CECTEiA2t7L2AP-8" value="" style="rhombus;whiteSpace=wrap;html=1;" parent="1" vertex="1">
          <mxGeometry x="200" y="200" width="80" height="80" as="geometry" />
        </mxCell>
        <mxCell id="zOs2S9CECTEiA2t7L2AP-16" value="" style="edgeStyle=orthogonalEdgeStyle;rounded=0;orthogonalLoop=1;jettySize=auto;html=1;" parent="1" source="zOs2S9CECTEiA2t7L2AP-9" target="zOs2S9CECTEiA2t7L2AP-6" edge="1">
          <mxGeometry relative="1" as="geometry" />
        </mxCell>
        <mxCell id="zOs2S9CECTEiA2t7L2AP-19" value="n" style="edgeLabel;html=1;align=center;verticalAlign=middle;resizable=0;points=[];" parent="zOs2S9CECTEiA2t7L2AP-16" vertex="1" connectable="0">
          <mxGeometry x="0.15" y="1" relative="1" as="geometry">
            <mxPoint y="-11" as="offset" />
          </mxGeometry>
        </mxCell>
        <mxCell id="zOs2S9CECTEiA2t7L2AP-9" value="" style="rhombus;whiteSpace=wrap;html=1;" parent="1" vertex="1">
          <mxGeometry x="440" y="200" width="80" height="80" as="geometry" />
        </mxCell>
        <mxCell id="z4XoDDYNQQ35mJk-jAJU-1" value="&lt;div&gt;ERM&lt;/div&gt;&lt;div&gt;Entity Relationship Model&lt;br&gt;&lt;/div&gt;" style="text;strokeColor=none;fillColor=none;html=1;align=center;verticalAlign=middle;whiteSpace=wrap;rounded=0;fontSize=16;" vertex="1" parent="1">
          <mxGeometry x="305" y="80" width="110" height="80" as="geometry" />
        </mxCell>
      </root>
    </mxGraphModel>
  </diagram>
</mxfile>
